<svg width="46" height="68" viewBox="0 0 46 68" fill="none" xmlns="http://www.w3.org/2000/svg">
<g clip-path="url(#clip0_1_151)">
<path d="M38.75 0.25H7.25C5.46034 0.251787 3.74449 0.96352 2.479 2.229C1.21352 3.49449 0.501787 5.21034 0.5 7V61C0.501787 62.7897 1.21352 64.5055 2.479 65.771C3.74449 67.0365 5.46034 67.7482 7.25 67.75H38.75C40.5397 67.7482 42.2555 67.0365 43.521 65.771C44.7865 64.5055 45.4982 62.7897 45.5 61V7C45.4982 5.21034 44.7865 3.49449 43.521 2.229C42.2555 0.96352 40.5397 0.251787 38.75 0.25ZM43.25 61C43.25 62.1935 42.7759 63.3381 41.932 64.182C41.0881 65.0259 39.9435 65.5 38.75 65.5H7.25C6.05653 65.5 4.91193 65.0259 4.06802 64.182C3.22411 63.3381 2.75 62.1935 2.75 61V7C2.75 5.80653 3.22411 4.66193 4.06802 3.81802C4.91193 2.97411 6.05653 2.5 7.25 2.5H38.75C39.9435 2.5 41.0881 2.97411 41.932 3.81802C42.7759 4.66193 43.25 5.80653 43.25 7V61Z" fill="#2DC071"/>
<path d="M25.25 56.5H20.75C19.8549 56.5 18.9964 56.8556 18.3635 57.4885C17.7306 58.1215 17.375 58.9799 17.375 59.875C17.375 60.7701 17.7306 61.6285 18.3635 62.2615C18.9964 62.8944 19.8549 63.25 20.75 63.25H25.25C26.1451 63.25 27.0035 62.8944 27.6365 62.2615C28.2694 61.6285 28.625 60.7701 28.625 59.875C28.625 58.9799 28.2694 58.1215 27.6365 57.4885C27.0035 56.8556 26.1451 56.5 25.25 56.5ZM25.25 61H20.75C20.4516 61 20.1655 60.8815 19.9545 60.6705C19.7435 60.4595 19.625 60.1734 19.625 59.875C19.625 59.5766 19.7435 59.2905 19.9545 59.0795C20.1655 58.8685 20.4516 58.75 20.75 58.75H25.25C25.5484 58.75 25.8345 58.8685 26.0455 59.0795C26.2565 59.2905 26.375 59.5766 26.375 59.875C26.375 60.1734 26.2565 60.4595 26.0455 60.6705C25.8345 60.8815 25.5484 61 25.25 61Z" fill="#2DC071"/>
<path d="M15.125 4.75H17.375V7H15.125V4.75Z" fill="#2DC071"/>
<path d="M19.625 4.75H26.375V7H19.625V4.75Z" fill="#2DC071"/>
<path d="M22.2047 29.1703C22.4156 29.3812 22.7017 29.4997 23 29.4997C23.2983 29.4997 23.5844 29.3812 23.7954 29.1703L31.7503 21.2154C32.7975 20.1589 33.3837 18.7306 33.3804 17.2431C33.3772 15.7555 32.7848 14.3298 31.7329 13.2779C30.681 12.226 29.2553 11.6336 27.7677 11.6304C26.2802 11.6271 24.8519 12.2133 23.7954 13.2605L23 14.0559L22.2047 13.2605C21.1482 12.2133 19.7199 11.6271 18.2323 11.6304C16.7447 11.6336 15.319 12.226 14.2672 13.2779C13.2153 14.3298 12.6229 15.7555 12.6196 17.2431C12.6164 18.7306 13.2025 20.1589 14.2498 21.2154L22.2047 29.1703ZM15.8405 14.8513C16.1539 14.5378 16.526 14.2892 16.9355 14.1195C17.345 13.9499 17.784 13.8625 18.2272 13.8625C18.6705 13.8625 19.1094 13.9499 19.5189 14.1195C19.9284 14.2892 20.3005 14.5378 20.6139 14.8513L22.2047 16.4431C22.4196 16.6464 22.7042 16.7597 23 16.7597C23.2959 16.7597 23.5805 16.6464 23.7954 16.4431L25.3862 14.8513C26.0191 14.2183 26.8777 13.8627 27.7728 13.8627C28.668 13.8627 29.5265 14.2183 30.1595 14.8513C30.7925 15.4843 31.1481 16.3428 31.1481 17.238C31.1481 18.1331 30.7925 18.9917 30.1595 19.6246L23 26.7841L15.8405 19.6246C15.2088 18.991 14.8541 18.1327 14.8541 17.238C14.8541 16.3432 15.2088 15.4849 15.8405 14.8513Z" fill="#2DC071"/>
<path d="M30.7625 39.1221C30.6638 38.917 30.5045 38.7473 30.306 38.636C30.1076 38.5247 29.8797 38.4772 29.6533 38.5C29.4286 38.5193 29.215 38.6057 29.0401 38.7479C28.8652 38.8901 28.737 39.0816 28.6722 39.2976L26.5561 46.3491L24.1003 34.8853C24.0467 34.6393 23.9122 34.4184 23.7182 34.2579C23.5243 34.0973 23.2821 34.0065 23.0304 34C22.7779 33.9911 22.5299 34.0683 22.3271 34.219C22.1243 34.3697 21.9788 34.5848 21.9144 34.8291L19.6003 43.3172L18.4572 39.3156C18.3958 39.0968 18.2694 38.9018 18.0949 38.7562C17.9204 38.6106 17.7059 38.5212 17.4796 38.5C17.2534 38.477 17.0257 38.5239 16.827 38.6343C16.6282 38.7448 16.4681 38.9134 16.3681 39.1176L14.4297 42.9999H7.25V45.2499H15.125C15.3341 45.25 15.539 45.1919 15.7169 45.082C15.8947 44.9721 16.0384 44.8148 16.1319 44.6278L17.0881 42.7153L18.5428 47.8093C18.61 48.0444 18.752 48.2512 18.9473 48.3984C19.1426 48.5455 19.3805 48.6251 19.625 48.6249H19.6318C19.8774 48.6235 20.1159 48.5417 20.3107 48.392C20.5056 48.2423 20.646 48.0329 20.7106 47.7958L22.8695 39.8815L25.2747 51.1101C25.327 51.3543 25.4591 51.5743 25.6501 51.7352C25.8412 51.8961 26.0804 51.9889 26.33 51.9988H26.375C26.617 51.9988 26.8526 51.9208 27.0468 51.7763C27.2409 51.6318 27.3833 51.4285 27.4528 51.1967L30.0121 42.6624L30.9931 44.6244C31.0861 44.8121 31.2296 44.9701 31.4075 45.0806C31.5854 45.1911 31.7906 45.2497 32 45.2499H38.75V42.9999H32.6952L30.7625 39.1221Z" fill="#2DC071"/>
</g>
<defs>
<clipPath id="clip0_1_151">
<rect width="45" height="67.5" fill="white" transform="translate(0.5 0.25)"/>
</clipPath>
</defs>
</svg>
