<svg width="73" height="72" viewBox="0 0 73 72" fill="none" xmlns="http://www.w3.org/2000/svg">
<g clip-path="url(#clip0_1_103)">
<g clip-path="url(#clip1_1_103)">
<g clip-path="url(#clip2_1_103)">
<path d="M13.7 25.2H11.3V27.6H13.7V25.2Z" fill="#FC724D"/>
</g>
</g>
<g clip-path="url(#clip3_1_103)">
<g clip-path="url(#clip4_1_103)">
<path d="M28.1 25.2H16.1V27.6H28.1V25.2Z" fill="#FC724D"/>
</g>
</g>
<g clip-path="url(#clip5_1_103)">
<g clip-path="url(#clip6_1_103)">
<path d="M28.1 30H8.90002V32.4H28.1V30Z" fill="#FC724D"/>
</g>
</g>
<g clip-path="url(#clip7_1_103)">
<g clip-path="url(#clip8_1_103)">
<path d="M23.3 34.8H8.90002V37.2H23.3V34.8Z" fill="#FC724D"/>
</g>
</g>
<g clip-path="url(#clip9_1_103)">
<g clip-path="url(#clip10_1_103)">
<path d="M37.7 60H35.3V62.4H37.7V60Z" fill="#FC724D"/>
</g>
</g>
<g clip-path="url(#clip11_1_103)">
<g clip-path="url(#clip12_1_103)">
<path d="M40.1 9.59998H37.7V12H40.1V9.59998Z" fill="#FC724D"/>
</g>
</g>
<g clip-path="url(#clip13_1_103)">
<g clip-path="url(#clip14_1_103)">
<path d="M35.3 9.59998H32.9V12H35.3V9.59998Z" fill="#FC724D"/>
</g>
</g>
<g clip-path="url(#clip15_1_103)">
<g clip-path="url(#clip16_1_103)">
<path d="M66.5 24H55.7V9.60005C55.7 6.9491 53.5509 4.80005 50.9 4.80005H22.1C19.449 4.80005 17.3 6.9491 17.3 9.60005V20.4H6.49999C4.51174 20.4 2.89999 22.0118 2.89999 24V38.4C2.89999 40.3883 4.51174 42 6.49999 42H17.3V62.4C17.3 65.051 19.449 67.2 22.1 67.2H50.9C53.5509 67.2 55.7 65.051 55.7 62.4V48H66.5C68.4882 48 70.1 46.3883 70.1 44.4V27.6C70.1 25.6118 68.4882 24 66.5 24ZM19.7 9.60005C19.7 8.2745 20.7744 7.20005 22.1 7.20005H50.9C52.2255 7.20005 53.3 8.2745 53.3 9.60005V14.4H19.7V9.60005ZM6.49999 39.6C5.83729 39.6 5.29999 39.0627 5.29999 38.4V24C5.29999 23.3373 5.83729 22.8 6.49999 22.8H30.5C31.1627 22.8 31.7 23.3373 31.7 24V38.4C31.7 39.0627 31.1627 39.6 30.5 39.6H26.9C26.2373 39.6 25.7 40.1373 25.7 40.8V43.3572L20.366 39.8016C20.1686 39.6705 19.937 39.6005 19.7 39.6H6.49999ZM53.3 62.4C53.3 63.7256 52.2255 64.8 50.9 64.8H22.1C20.7744 64.8 19.7 63.7256 19.7 62.4V57.6H53.3V62.4ZM53.3 55.2H19.7V42.24L26.234 46.5961C26.7852 46.9639 27.5304 46.8152 27.8982 46.2638C28.0293 46.0673 28.0995 45.8363 28.1 45.6V42H30.5C32.4882 42 34.1 40.3883 34.1 38.4V24C34.1 22.0118 32.4882 20.4 30.5 20.4H19.7V16.8H53.3V24H42.5C40.5117 24 38.9 25.6118 38.9 27.6V44.4C38.9 46.3883 40.5117 48 42.5 48H44.9V51.6C44.8998 52.2627 45.4371 52.8002 46.0998 52.8002C46.337 52.8002 46.5687 52.73 46.766 52.5984L53.3 48.24V55.2ZM67.7 44.4C67.7 45.0627 67.1627 45.6 66.5 45.6H53.3C53.063 45.6005 52.8314 45.6705 52.634 45.8016L47.3 49.3572V46.8C47.3 46.1373 46.7627 45.6 46.1 45.6H42.5C41.8373 45.6 41.3 45.0627 41.3 44.4V27.6C41.3 26.9373 41.8373 26.4 42.5 26.4H66.5C67.1627 26.4 67.7 26.9373 67.7 27.6V44.4Z" fill="#FC724D"/>
</g>
</g>
<g clip-path="url(#clip17_1_103)">
<g clip-path="url(#clip18_1_103)">
<path d="M14.9 63.6V54H12.5V63.6C12.5052 68.2369 16.263 71.9947 20.9 72V69.6C17.588 69.5961 14.9039 66.912 14.9 63.6Z" fill="#FC724D"/>
</g>
</g>
<g clip-path="url(#clip19_1_103)">
<g clip-path="url(#clip20_1_103)">
<path d="M14.9 49.2H12.5V51.5999H14.9V49.2Z" fill="#FC724D"/>
</g>
</g>
<g clip-path="url(#clip21_1_103)">
<g clip-path="url(#clip22_1_103)">
<path d="M52.1 0H48.5V2.4H52.1C55.412 2.4039 58.0961 5.088 58.1 8.4V14.4H60.5V8.4C60.4948 3.76305 56.7369 0.00525 52.1 0Z" fill="#FC724D"/>
</g>
</g>
<g clip-path="url(#clip23_1_103)">
<g clip-path="url(#clip24_1_103)">
<path d="M60.5 16.8H58.1V19.2001H60.5V16.8Z" fill="#FC724D"/>
</g>
</g>
<g clip-path="url(#clip25_1_103)">
<g clip-path="url(#clip26_1_103)">
<path d="M60.5 32.4H58.1V30C58.1 29.3373 57.5627 28.8 56.9 28.8H52.1C51.4373 28.8 50.9 29.3373 50.9 30V32.4H48.5C47.8373 32.4 47.3 32.9373 47.3 33.6V38.4C47.3 39.0627 47.8373 39.6 48.5 39.6H50.9V42C50.9 42.6627 51.4373 43.2 52.1 43.2H56.9C57.5627 43.2 58.1 42.6627 58.1 42V39.6H60.5C61.1627 39.6 61.7 39.0627 61.7 38.4V33.6C61.7 32.9373 61.1627 32.4 60.5 32.4ZM59.3 37.2H56.9C56.2373 37.2 55.7 37.7373 55.7 38.4V40.8H53.3V38.4C53.3 37.7373 52.7627 37.2 52.1 37.2H49.7V34.8H52.1C52.7627 34.8 53.3 34.2627 53.3 33.6V31.2H55.7V33.6C55.7 34.2627 56.2373 34.8 56.9 34.8H59.3V37.2Z" fill="#FC724D"/>
</g>
</g>
</g>
<defs>
<clipPath id="clip0_1_103">
<rect width="72" height="72" fill="white" transform="translate(0.5)"/>
</clipPath>
<clipPath id="clip1_1_103">
<rect width="2.4" height="2.4" fill="white" transform="translate(11.3 25.2)"/>
</clipPath>
<clipPath id="clip2_1_103">
<rect width="2.4" height="2.4" fill="white" transform="translate(11.3 25.2)"/>
</clipPath>
<clipPath id="clip3_1_103">
<rect width="12" height="2.4" fill="white" transform="translate(16.1 25.2)"/>
</clipPath>
<clipPath id="clip4_1_103">
<rect width="12" height="2.4" fill="white" transform="translate(16.1 25.2)"/>
</clipPath>
<clipPath id="clip5_1_103">
<rect width="19.2" height="2.4" fill="white" transform="translate(8.90002 30)"/>
</clipPath>
<clipPath id="clip6_1_103">
<rect width="19.2" height="2.4" fill="white" transform="translate(8.90002 30)"/>
</clipPath>
<clipPath id="clip7_1_103">
<rect width="14.4" height="2.4" fill="white" transform="translate(8.90002 34.8)"/>
</clipPath>
<clipPath id="clip8_1_103">
<rect width="14.4" height="2.4" fill="white" transform="translate(8.90002 34.8)"/>
</clipPath>
<clipPath id="clip9_1_103">
<rect width="2.4" height="2.4" fill="white" transform="translate(35.3 60)"/>
</clipPath>
<clipPath id="clip10_1_103">
<rect width="2.4" height="2.4" fill="white" transform="translate(35.3 60)"/>
</clipPath>
<clipPath id="clip11_1_103">
<rect width="2.40001" height="2.4" fill="white" transform="translate(37.7 9.59998)"/>
</clipPath>
<clipPath id="clip12_1_103">
<rect width="2.40001" height="2.4" fill="white" transform="translate(37.7 9.59998)"/>
</clipPath>
<clipPath id="clip13_1_103">
<rect width="2.4" height="2.4" fill="white" transform="translate(32.9 9.59998)"/>
</clipPath>
<clipPath id="clip14_1_103">
<rect width="2.4" height="2.4" fill="white" transform="translate(32.9 9.59998)"/>
</clipPath>
<clipPath id="clip15_1_103">
<rect width="67.2" height="62.4" fill="white" transform="translate(2.89999 4.80005)"/>
</clipPath>
<clipPath id="clip16_1_103">
<rect width="67.2" height="62.4" fill="white" transform="translate(2.89999 4.80005)"/>
</clipPath>
<clipPath id="clip17_1_103">
<rect width="8.4" height="18" fill="white" transform="translate(12.5 54)"/>
</clipPath>
<clipPath id="clip18_1_103">
<rect width="8.4" height="18" fill="white" transform="translate(12.5 54)"/>
</clipPath>
<clipPath id="clip19_1_103">
<rect width="2.4" height="2.4" fill="white" transform="translate(12.5 49.2)"/>
</clipPath>
<clipPath id="clip20_1_103">
<rect width="2.4" height="2.4" fill="white" transform="translate(12.5 49.2)"/>
</clipPath>
<clipPath id="clip21_1_103">
<rect width="12" height="14.4" fill="white" transform="translate(48.5)"/>
</clipPath>
<clipPath id="clip22_1_103">
<rect width="12" height="14.4" fill="white" transform="translate(48.5)"/>
</clipPath>
<clipPath id="clip23_1_103">
<rect width="2.4" height="2.4" fill="white" transform="translate(58.1 16.8)"/>
</clipPath>
<clipPath id="clip24_1_103">
<rect width="2.4" height="2.4" fill="white" transform="translate(58.1 16.8)"/>
</clipPath>
<clipPath id="clip25_1_103">
<rect width="14.4" height="14.4" fill="white" transform="translate(47.3 28.8)"/>
</clipPath>
<clipPath id="clip26_1_103">
<rect width="14.4" height="14.4" fill="white" transform="translate(47.3 28.8)"/>
</clipPath>
</defs>
</svg>
