<svg width="132" height="23" viewBox="0 0 132 23" fill="none" xmlns="http://www.w3.org/2000/svg">
<g clip-path="url(#clip0_1_354)">
<path d="M21.0967 8.41915C21.039 8.24934 20.9329 8.10013 20.7914 7.98994C20.6499 7.87975 20.4793 7.81341 20.3005 7.7991L15.0714 7.38359L12.8086 2.37458C12.7365 2.21324 12.6193 2.07622 12.4711 1.98003C12.3228 1.88385 12.15 1.83262 11.9733 1.83252C11.7966 1.83242 11.6236 1.88347 11.4753 1.97949C11.327 2.07551 11.2096 2.21241 11.1374 2.37366L8.87455 7.38359L3.64539 7.7991C3.4697 7.81302 3.30174 7.87726 3.1616 7.98413C3.02147 8.09101 2.91509 8.236 2.85519 8.40175C2.7953 8.5675 2.78442 8.747 2.82387 8.91877C2.86332 9.09054 2.95142 9.24731 3.07763 9.37032L6.94193 13.1374L5.57526 19.0554C5.53376 19.2345 5.54706 19.422 5.61343 19.5935C5.6798 19.765 5.79618 19.9125 5.94747 20.0171C6.09876 20.1216 6.27797 20.1782 6.46184 20.1796C6.64571 20.181 6.82576 20.1271 6.97862 20.0249L11.973 16.6954L16.9673 20.0249C17.1235 20.1286 17.3078 20.182 17.4953 20.1779C17.6828 20.1738 17.8645 20.1124 18.0161 20.0019C18.1676 19.8914 18.2817 19.7372 18.3429 19.5599C18.4042 19.3827 18.4097 19.1909 18.3587 19.0105L16.6811 13.1402L20.8417 9.396C21.1141 9.15018 21.2141 8.76678 21.0967 8.41915Z" fill="#F3CD03"/>
<path d="M48.1116 8.41915C48.054 8.24934 47.9478 8.10013 47.8064 7.98994C47.6649 7.87975 47.4942 7.81341 47.3155 7.7991L42.0863 7.38359L39.8235 2.37458C39.7514 2.21324 39.6342 2.07622 39.486 1.98003C39.3378 1.88385 39.1649 1.83262 38.9882 1.83252C38.8115 1.83242 38.6385 1.88347 38.4902 1.97949C38.3419 2.07551 38.2245 2.21241 38.1523 2.37366L35.8895 7.38359L30.6603 7.7991C30.4846 7.81302 30.3167 7.87726 30.1765 7.98413C30.0364 8.09101 29.93 8.236 29.8701 8.40175C29.8102 8.5675 29.7993 8.747 29.8388 8.91877C29.8782 9.09054 29.9663 9.24731 30.0926 9.37032L33.9569 13.1374L32.5902 19.0554C32.5487 19.2345 32.562 19.422 32.6284 19.5935C32.6947 19.765 32.8111 19.9125 32.9624 20.0171C33.1137 20.1216 33.2929 20.1782 33.4768 20.1796C33.6606 20.181 33.8407 20.1271 33.9935 20.0249L38.9879 16.6954L43.9822 20.0249C44.1385 20.1286 44.3227 20.182 44.5102 20.1779C44.6977 20.1738 44.8794 20.1124 45.031 20.0019C45.1825 19.8914 45.2966 19.7372 45.3579 19.5599C45.4191 19.3827 45.4246 19.1909 45.3737 19.0105L43.696 13.1402L47.8566 9.396C48.129 9.15018 48.229 8.76678 48.1116 8.41915Z" fill="#F3CD03"/>
<path d="M75.1227 8.41915C75.065 8.24934 74.9589 8.10013 74.8174 7.98994C74.6759 7.87975 74.5053 7.81341 74.3265 7.7991L69.0974 7.38359L66.8345 2.37458C66.7625 2.21324 66.6453 2.07622 66.497 1.98003C66.3488 1.88385 66.1759 1.83262 65.9992 1.83252C65.8225 1.83242 65.6496 1.88347 65.5013 1.97949C65.3529 2.07551 65.2356 2.21241 65.1633 2.37366L62.9005 7.38359L57.6714 7.7991C57.4957 7.81302 57.3277 7.87726 57.1876 7.98413C57.0474 8.09101 56.9411 8.236 56.8812 8.40175C56.8213 8.5675 56.8104 8.747 56.8498 8.91877C56.8893 9.09054 56.9774 9.24731 57.1036 9.37032L60.9679 13.1374L59.6012 19.0554C59.5597 19.2345 59.573 19.422 59.6394 19.5935C59.7058 19.765 59.8222 19.9125 59.9734 20.0171C60.1247 20.1216 60.3039 20.1782 60.4878 20.1796C60.6717 20.181 60.8517 20.1271 61.0046 20.0249L65.9989 16.6954L70.9933 20.0249C71.1495 20.1286 71.3338 20.182 71.5213 20.1779C71.7088 20.1738 71.8905 20.1124 72.042 20.0019C72.1936 19.8914 72.3076 19.7372 72.3689 19.5599C72.4302 19.3827 72.4357 19.1909 72.3847 19.0105L70.7071 13.1402L74.8677 9.396C75.1401 9.15018 75.2401 8.76678 75.1227 8.41915Z" fill="#F3CD03"/>
<path d="M102.137 8.41915C102.079 8.24934 101.973 8.10013 101.831 7.98994C101.69 7.87975 101.519 7.81341 101.34 7.7991L96.1113 7.38359L93.8485 2.37458C93.7764 2.21324 93.6592 2.07622 93.511 1.98003C93.3628 1.88385 93.1899 1.83262 93.0132 1.83252C92.8365 1.83242 92.6636 1.88347 92.5152 1.97949C92.3669 2.07551 92.2496 2.21241 92.1773 2.37366L89.9145 7.38359L84.6853 7.7991C84.5097 7.81302 84.3417 7.87726 84.2016 7.98413C84.0614 8.09101 83.955 8.236 83.8951 8.40175C83.8352 8.5675 83.8244 8.747 83.8638 8.91877C83.9033 9.09054 83.9914 9.24731 84.1176 9.37032L87.9819 13.1374L86.6152 19.0554C86.5737 19.2345 86.587 19.422 86.6534 19.5935C86.7198 19.765 86.8361 19.9125 86.9874 20.0171C87.1387 20.1216 87.3179 20.1782 87.5018 20.1796C87.6857 20.181 87.8657 20.1271 88.0186 20.0249L93.0129 16.6954L98.0073 20.0249C98.1635 20.1286 98.3477 20.182 98.5352 20.1779C98.7227 20.1738 98.9045 20.1124 99.056 20.0019C99.2076 19.8914 99.3216 19.7372 99.3829 19.5599C99.4442 19.3827 99.4497 19.1909 99.3987 19.0105L97.7211 13.1402L101.882 9.396C102.154 9.15018 102.254 8.76678 102.137 8.41915Z" fill="#F3CD03"/>
<path d="M114.998 13.1374L113.631 19.0554C113.589 19.2346 113.601 19.4224 113.667 19.5943C113.734 19.7662 113.85 19.9141 114.001 20.0188C114.153 20.1235 114.332 20.1801 114.516 20.1812C114.701 20.1823 114.881 20.1278 115.033 20.0249L120.028 16.6954L125.022 20.0249C125.178 20.1287 125.363 20.1821 125.55 20.178C125.738 20.1739 125.919 20.1124 126.071 20.0019C126.222 19.8915 126.337 19.7372 126.398 19.56C126.459 19.3827 126.465 19.191 126.414 19.0105L124.736 13.1402L128.897 9.39603C129.03 9.27605 129.125 9.11963 129.17 8.94614C129.216 8.77264 129.209 8.58967 129.151 8.41986C129.094 8.25004 128.988 8.10083 128.846 7.99067C128.705 7.88051 128.534 7.81423 128.355 7.80004L123.126 7.38362L120.863 2.3746C120.791 2.21331 120.674 2.07635 120.526 1.98025C120.377 1.88415 120.205 1.83301 120.028 1.83301C119.851 1.83301 119.678 1.88415 119.53 1.98025C119.382 2.07635 119.264 2.21331 119.192 2.3746L116.929 7.38362L111.7 7.79913C111.525 7.81305 111.357 7.87729 111.216 7.98416C111.076 8.09104 110.97 8.23602 110.91 8.40178C110.85 8.56753 110.839 8.74703 110.879 8.9188C110.918 9.09057 111.006 9.24734 111.132 9.37035L114.998 13.1374ZM117.615 9.16947C117.778 9.15658 117.936 9.09987 118.07 9.0053C118.204 8.91073 118.31 8.78179 118.378 8.63198L120.028 4.98047L121.678 8.63198C121.745 8.78179 121.852 8.91073 121.986 9.0053C122.12 9.09987 122.277 9.15658 122.441 9.16947L126.084 9.4584L123.084 12.1587C122.824 12.3936 122.72 12.7549 122.815 13.0925L123.965 17.1146L120.538 14.8297C120.387 14.7288 120.21 14.6749 120.029 14.6749C119.848 14.6749 119.671 14.7288 119.521 14.8297L115.94 17.2173L116.903 13.0475C116.938 12.8942 116.933 12.7343 116.889 12.5833C116.845 12.4323 116.762 12.2953 116.65 12.1853L113.863 9.46849L117.615 9.16947Z" fill="#F3CD03"/>
</g>
<defs>
<clipPath id="clip0_1_354">
<rect width="130.068" height="22.0136" fill="white" transform="translate(0.965942)"/>
</clipPath>
</defs>
</svg>
