<svg width="169" height="56" viewBox="0 0 169 56" fill="none" xmlns="http://www.w3.org/2000/svg">
<rect width="169" height="56" rx="4" fill="#69B99D"/>
<path d="M48.6 29.5C48.4 29.4 47.1 28.8 46.9 28.7C46.7 28.6 46.5 28.6 46.3 28.8C46.1 29 45.7 29.6 45.5 29.8C45.4 30 45.2 30 45 29.9C44.3 29.6 43.6 29.2 43 28.7C42.5 28.2 42 27.6 41.6 27C41.5 26.8 41.6 26.6 41.7 26.5C41.8 26.4 41.9 26.2 42.1 26.1C42.2 26 42.3 25.8 42.3 25.7C42.4 25.6 42.4 25.4 42.3 25.3C42.2 25.2 41.7 24 41.5 23.5C41.4 22.8 41.2 22.8 41 22.8C40.9 22.8 40.7 22.8 40.5 22.8C40.3 22.8 40 23 39.9 23.1C39.3 23.7 39 24.4 39 25.2C39.1 26.1 39.4 27 40 27.8C41.1 29.4 42.5 30.7 44.2 31.5C44.7 31.7 45.1 31.9 45.6 32C46.1 32.2 46.6 32.2 47.2 32.1C47.9 32 48.5 31.5 48.9 30.9C49.1 30.5 49.1 30.1 49 29.7C49 29.7 48.8 29.6 48.6 29.5ZM51.1 20.4C47.2 16.5 40.9 16.5 37 20.4C33.8 23.6 33.2 28.5 35.4 32.4L34 37.5L39.3 36.1C40.8 36.9 42.4 37.3 44 37.3C49.5 37.3 53.9 32.9 53.9 27.4C54 24.8 52.9 22.3 51.1 20.4ZM48.4 34.4C47.1 35.2 45.6 35.7 44 35.7C42.5 35.7 41.1 35.3 39.8 34.6L39.5 34.4L36.4 35.2L37.2 32.2L37 31.9C34.6 27.9 35.8 22.9 39.7 20.4C43.6 17.9 48.6 19.2 51 23C53.4 26.9 52.3 32 48.4 34.4Z" fill="#F9F9F9"/>
<path d="M69.0508 33.192C68.2294 33.192 67.5094 33.048 66.8908 32.76C66.2721 32.472 65.7868 32.0613 65.4348 31.528C65.0934 30.9947 64.9174 30.36 64.9068 29.624H66.6988C66.7094 30.2213 66.9174 30.728 67.3228 31.144C67.7281 31.56 68.2988 31.768 69.0348 31.768C69.6854 31.768 70.1921 31.6133 70.5548 31.304C70.9281 30.984 71.1148 30.5787 71.1148 30.088C71.1148 29.6933 71.0241 29.3733 70.8428 29.128C70.6721 28.8827 70.4321 28.68 70.1228 28.52C69.8241 28.36 69.4774 28.216 69.0828 28.088C68.6881 27.96 68.2721 27.8213 67.8348 27.672C66.9708 27.384 66.3201 27.0107 65.8828 26.552C65.4561 26.0933 65.2428 25.4907 65.2428 24.744C65.2321 24.1147 65.3761 23.5653 65.6748 23.096C65.9841 22.6267 66.4108 22.264 66.9548 22.008C67.5094 21.7413 68.1548 21.608 68.8908 21.608C69.6161 21.608 70.2508 21.7413 70.7948 22.008C71.3494 22.2747 71.7814 22.648 72.0908 23.128C72.4001 23.5973 72.5601 24.1467 72.5708 24.776H70.7788C70.7788 24.488 70.7041 24.216 70.5548 23.96C70.4054 23.6933 70.1868 23.4747 69.8988 23.304C69.6108 23.1333 69.2588 23.048 68.8428 23.048C68.3094 23.0373 67.8668 23.1707 67.5148 23.448C67.1734 23.7253 67.0028 24.1093 67.0028 24.6C67.0028 25.0373 67.1308 25.3733 67.3868 25.608C67.6428 25.8427 67.9948 26.04 68.4427 26.2C68.8908 26.3493 69.4028 26.5253 69.9788 26.728C70.5334 26.9093 71.0294 27.128 71.4668 27.384C71.9041 27.64 72.2508 27.976 72.5068 28.392C72.7734 28.808 72.9068 29.336 72.9068 29.976C72.9068 30.5413 72.7628 31.0693 72.4748 31.56C72.1868 32.04 71.7548 32.4347 71.1788 32.744C70.6028 33.0427 69.8934 33.192 69.0508 33.192ZM78.025 33C77.2463 33 76.6277 32.8133 76.169 32.44C75.7103 32.056 75.481 31.3787 75.481 30.408V26.488H74.121V25.064H75.481L75.689 23.048H77.177V25.064H79.417V26.488H77.177V30.408C77.177 30.8453 77.2677 31.1493 77.449 31.32C77.641 31.48 77.9663 31.56 78.425 31.56H79.337V33H78.025ZM83.8538 33.192C83.1818 33.192 82.6271 33.08 82.1898 32.856C81.7524 32.632 81.4271 32.3387 81.2138 31.976C81.0004 31.6027 80.8938 31.1973 80.8938 30.76C80.8938 29.992 81.1924 29.384 81.7898 28.936C82.3871 28.488 83.2404 28.264 84.3498 28.264H86.4298V28.12C86.4298 27.5013 86.2591 27.0373 85.9178 26.728C85.5871 26.4187 85.1551 26.264 84.6218 26.264C84.1524 26.264 83.7418 26.3813 83.3898 26.616C83.0484 26.84 82.8404 27.176 82.7658 27.624H81.0698C81.1231 27.048 81.3151 26.5573 81.6458 26.152C81.9871 25.736 82.4138 25.4213 82.9258 25.208C83.4484 24.984 84.0191 24.872 84.6378 24.872C85.7471 24.872 86.6058 25.1653 87.2138 25.752C87.8218 26.328 88.1258 27.1173 88.1258 28.12V33H86.6538L86.5098 31.64C86.2858 32.0773 85.9604 32.4453 85.5338 32.744C85.1071 33.0427 84.5471 33.192 83.8538 33.192ZM84.1898 31.816C84.6484 31.816 85.0324 31.7093 85.3418 31.496C85.6618 31.272 85.9071 30.9787 86.0778 30.616C86.2591 30.2533 86.3711 29.8533 86.4138 29.416H84.5258C83.8538 29.416 83.3738 29.5333 83.0858 29.768C82.8084 30.0027 82.6698 30.296 82.6698 30.648C82.6698 31.0107 82.8031 31.2987 83.0698 31.512C83.3471 31.7147 83.7204 31.816 84.1898 31.816ZM90.1033 33V25.064H91.6233L91.7673 26.568C92.0446 26.0453 92.4286 25.6347 92.9193 25.336C93.4206 25.0267 94.0233 24.872 94.7273 24.872V26.648H94.2633C93.7939 26.648 93.3726 26.728 92.9993 26.888C92.6366 27.0373 92.3433 27.2987 92.1193 27.672C91.9059 28.0347 91.7993 28.5413 91.7993 29.192V33H90.1033ZM99.5094 33C98.7307 33 98.112 32.8133 97.6534 32.44C97.1947 32.056 96.9654 31.3787 96.9654 30.408V26.488H95.6054V25.064H96.9654L97.1734 23.048H98.6614V25.064H100.901V26.488H98.6614V30.408C98.6614 30.8453 98.752 31.1493 98.9334 31.32C99.1254 31.48 99.4507 31.56 99.9094 31.56H100.821V33H99.5094ZM106.681 33V25.064H108.185L108.313 26.456C108.559 25.9653 108.916 25.5813 109.385 25.304C109.865 25.016 110.415 24.872 111.033 24.872C111.993 24.872 112.745 25.1707 113.289 25.768C113.844 26.3653 114.121 27.256 114.121 28.44V33H112.441V28.616C112.441 27.08 111.812 26.312 110.553 26.312C109.924 26.312 109.401 26.536 108.985 26.984C108.58 27.432 108.377 28.072 108.377 28.904V33H106.681ZM119.831 33.192C119.074 33.192 118.391 33.0213 117.783 32.68C117.186 32.328 116.711 31.8427 116.359 31.224C116.007 30.5947 115.831 29.864 115.831 29.032C115.831 28.2 116.007 27.4747 116.359 26.856C116.722 26.2267 117.207 25.7413 117.815 25.4C118.423 25.048 119.1 24.872 119.847 24.872C120.604 24.872 121.282 25.048 121.879 25.4C122.487 25.7413 122.967 26.2267 123.319 26.856C123.682 27.4747 123.863 28.2 123.863 29.032C123.863 29.864 123.682 30.5947 123.319 31.224C122.967 31.8427 122.487 32.328 121.879 32.68C121.271 33.0213 120.588 33.192 119.831 33.192ZM119.831 31.736C120.236 31.736 120.61 31.6347 120.951 31.432C121.303 31.2293 121.586 30.9307 121.799 30.536C122.012 30.1307 122.119 29.6293 122.119 29.032C122.119 28.4347 122.012 27.9387 121.799 27.544C121.596 27.1387 121.319 26.8347 120.967 26.632C120.626 26.4293 120.252 26.328 119.847 26.328C119.442 26.328 119.063 26.4293 118.711 26.632C118.37 26.8347 118.092 27.1387 117.879 27.544C117.666 27.9387 117.559 28.4347 117.559 29.032C117.559 29.6293 117.666 30.1307 117.879 30.536C118.092 30.9307 118.37 31.2293 118.711 31.432C119.052 31.6347 119.426 31.736 119.831 31.736ZM126.984 33L124.648 25.064H126.344L127.88 31.048L129.608 25.064H131.496L133.224 31.048L134.76 25.064H136.456L134.12 33H132.376L130.552 26.76L128.728 33H126.984Z" fill="#F9F9F9"/>
</svg>
